<?xml version="1.0" standalone="no"?>
<!DOCTYPE svg PUBLIC "-//W3C//DTD SVG 20010904//EN"
 "http://www.w3.org/TR/2001/REC-SVG-20010904/DTD/svg10.dtd">
<svg version="1.0" xmlns="http://www.w3.org/2000/svg"
 width="400.000000pt" height="400.000000pt" viewBox="0 0 400.000000 400.000000"
 preserveAspectRatio="xMidYMid meet">
<metadata>
Created by potrace 1.14, written by Peter Selinger 2001-2017
</metadata>
<g transform="translate(0.000000,400.000000) scale(0.100000,-0.100000)"
fill="#000000" stroke="none">
<path d="M1849 3996 c-2 -2 -33 -6 -69 -9 -154 -13 -421 -83 -570 -149 -63
-28 -200 -97 -230 -117 -14 -9 -33 -20 -42 -26 -41 -24 -137 -93 -188 -134
-246 -203 -424 -429 -557 -708 -45 -94 -116 -283 -128 -342 -2 -9 -10 -48 -19
-87 -8 -38 -18 -92 -22 -120 -3 -27 -8 -58 -11 -69 -3 -11 -6 -105 -8 -210 -3
-265 27 -456 106 -682 143 -406 410 -754 769 -1000 151 -103 476 -252 603
-277 12 -2 45 -10 72 -16 144 -33 251 -44 435 -45 174 0 258 7 375 29 44 9 91
18 105 21 44 8 192 56 270 87 113 45 244 113 350 182 476 312 790 796 885
1361 26 157 27 468 2 622 -35 212 -97 404 -193 594 -50 100 -166 284 -216 340
-13 15 -32 39 -44 53 -48 61 -190 199 -275 269 -75 61 -248 171 -348 221 -188
95 -401 164 -585 191 -23 4 -54 8 -71 11 -37 6 -391 15 -396 10z"/>
</g>
</svg>
